<?xml version="1.0" ?><!DOCTYPE svg  PUBLIC '-//W3C//DTD SVG 1.1//EN'  'http://www.w3.org/Graphics/SVG/1.1/DTD/svg11.dtd'><svg enable-background="new 0 0 48 48" height="48px" id="Layer_1" version="1.1" viewBox="0 0 48 48" width="48px" xml:space="preserve" xmlns="http://www.w3.org/2000/svg" xmlns:xlink="http://www.w3.org/1999/xlink"><g><path d="M24,0C10.744,0,0,10.745,0,24c0,13.253,10.744,24,24,24c13.254,0,24-10.746,24-24C48,10.745,37.254,0,24,0z    M24.07,44.09c-11.092,0-20.083-8.99-20.083-20.082c0-11.092,8.991-20.083,20.083-20.083c11.09,0,20.082,8.991,20.082,20.083   C44.152,35.1,35.16,44.09,24.07,44.09z" fill="#3C3C88"/><path d="M34.375,12.813h-20.75c-1.105,0-2,0.895-2,2v10.5v2.5v7.375l5.584-3.695l0,0l0.004-0.002l0.545-0.359   c0.828-0.494,2.601-1.318,5.283-1.318h11.334c1.104,0,2-0.896,2-2v-13C36.375,13.708,35.479,12.813,34.375,12.813z M32.438,24.438   c0,1.103-0.896,2-2,2h-2.326c-0.027,0.002-0.053,0.016-0.082,0.016h-5.759c-2.729,0-4.728,1.344-4.728,1.344l-2.668,1.766v-4.266   v-1.445v-6.07c0-0.639,0.518-1.156,1.156-1.156h10.531h1.467h2.408c1.104,0,2,0.895,2,2V24.438z" fill="#3C3C88"/></g></svg>